# xmcd
#
# Track frame offsets:
#	150
#	25707
#	44870
#	67232
#	86532
#	105622
#	126300
#	146375
#	165772
#	184562
#	207055
#
# Disc length: 3100 seconds
#
# Revision: 4
# Processed by: cddbd v1.4PL0 Copyright (c) Steve Scherf et al.
# Submitted via: EasyCDDAExtractor 4.5.0.2
#
DISCID=920c1a0b
DTITLE=Bob Carlisle - Butterfly Kisses (Shades Of Grace)
DYEAR=1997
DGENRE=Country
TTITLE0=Butterfly Kisses
TTITLE1=You Must Have Been An Angel
TTITLE2=Man Of His Word
TTITLE3=On My Way To Paradise
TTITLE4=One Man Revival
TTITLE5=Mighty Love
TTITLE6=Living Water
TTITLE7=It Is Well With My Soul
TTITLE8=On My Knees
TTITLE9=I'm Gonna Be Ready
TTITLE10=Butterfly Kisses (Reprise)
EXTD=
EXTT0=
EXTT1=
EXTT2=
EXTT3=
EXTT4=
EXTT5=
EXTT6=
EXTT7=
EXTT8=
EXTT9=
EXTT10=
PLAYORDER=
